<svg xmlns="http://www.w3.org/2000/svg" width="1920" height="218" fill="none"><ellipse cx="1308.69" cy="128.938" fill="#CCE5FF" rx="60.34" ry="60.97"/><ellipse cx="1406" cy="89.009" fill="#CCE5FF" rx="93" ry="86"/><ellipse cx="1592.58" cy="124.94" fill="#CCE5FF" rx="49.459" ry="49.976"/><ellipse cx="1406.62" cy="151.927" fill="#CCE5FF" rx="60.34" ry="60.97"/><ellipse cx="1508.5" cy="129.937" fill="#CCE5FF" rx="60.34" ry="60.97"/><ellipse cx="1586.65" cy="133.936" fill="#CCE5FF" rx="60.34" ry="60.97"/><ellipse cx="1683.5" cy="91.509" fill="#CCE5FF" rx="92.5" ry="88.5"/><ellipse cx="1870.54" cy="129.937" fill="#CCE5FF" rx="49.459" ry="49.976"/><ellipse cx="1684.58" cy="156.924" fill="#CCE5FF" rx="60.34" ry="60.97"/><ellipse cx="1786.46" cy="134.935" fill="#CCE5FF" rx="60.34" ry="60.97"/><ellipse cx="401.002" cy="122.096" fill="#CCE5FF" rx="55.778" ry="58.919"/><ellipse cx="495.5" cy="84.009" fill="#CCE5FF" rx="90.5" ry="83"/><ellipse cx="663.431" cy="118.232" fill="#CCE5FF" rx="45.719" ry="48.294"/><ellipse cx="491.526" cy="144.311" fill="#CCE5FF" rx="55.778" ry="58.919"/><ellipse cx="585.708" cy="123.062" fill="#CCE5FF" rx="55.778" ry="58.919"/><ellipse cx="724.132" cy="123.126" fill="#CCE5FF" rx="52.489" ry="57.282"/><ellipse cx="813" cy="84.509" fill="#CCE5FF" rx="85" ry="81.5"/><ellipse cx="971.087" cy="119.37" fill="#CCE5FF" rx="43.024" ry="46.953"/><ellipse cx="809.319" cy="144.724" fill="#CCE5FF" rx="52.489" ry="57.282"/><ellipse cx="897.947" cy="124.065" fill="#CCE5FF" rx="52.489" ry="57.282"/><ellipse cx="1029.77" cy="130.621" fill="#CCE5FF" rx="50.486" ry="53.215"/><ellipse cx="1115" cy="87.009" fill="#CCE5FF" rx="82" ry="84"/><ellipse cx="1267.3" cy="127.132" fill="#CCE5FF" rx="41.382" ry="43.619"/><ellipse cx="1111.71" cy="150.686" fill="#CCE5FF" rx="50.486" ry="53.215"/><ellipse cx="1196.96" cy="131.494" fill="#CCE5FF" rx="50.486" ry="53.215"/><ellipse cx="58.148" cy="133.83" fill="#CCE5FF" rx="58.148" ry="56.692"/><ellipse cx="152.519" cy="88.29" fill="#CCE5FF" rx="90.558" ry="88.29"/><ellipse cx="331.729" cy="130.112" fill="#CCE5FF" rx="47.662" ry="46.469"/><ellipse cx="152.519" cy="155.205" fill="#CCE5FF" rx="58.148" ry="56.692"/><ellipse cx="250.703" cy="134.759" fill="#CCE5FF" rx="58.148" ry="56.692"/><path fill="#333" d="M64.08 142.907c-1.824 0-3.444-.384-4.86-1.152a9.136 9.136 0 0 1-3.384-3.24c-.816-1.368-1.224-2.928-1.224-4.68 0-1.728.396-3.264 1.188-4.608a8.938 8.938 0 0 1 3.312-3.24c1.392-.816 2.94-1.224 4.644-1.224 1.68 0 3.156.384 4.428 1.152a7.818 7.818 0 0 1 3.024 3.096c.744 1.296 1.116 2.772 1.116 4.428 0 .312-.024.636-.072.972a7.206 7.206 0 0 1-.18 1.08l-14.616.036v-3.528l12.42-.036-1.908 1.476c-.048-1.032-.24-1.896-.576-2.592-.312-.696-.78-1.224-1.404-1.584-.6-.384-1.344-.576-2.232-.576-.936 0-1.752.216-2.448.648-.696.408-1.236.996-1.62 1.764-.36.744-.54 1.632-.54 2.664 0 1.056.192 1.98.576 2.772a4.457 4.457 0 0 0 1.728 1.8c.744.408 1.608.612 2.592.612.888 0 1.692-.144 2.412-.432a5.247 5.247 0 0 0 1.872-1.368l2.772 2.772a8.024 8.024 0 0 1-3.096 2.232c-1.2.504-2.508.756-3.924.756Zm26.064-.36v-3.996h6.588c1.177 0 2.088-.36 2.737-1.08a3.619 3.619 0 0 0 1.008-2.556c0-.672-.144-1.284-.432-1.836a3.073 3.073 0 0 0-1.296-1.296c-.552-.336-1.224-.504-2.016-.504h-6.589v-3.96h6.048c1.009 0 1.813-.252 2.413-.756.623-.504.935-1.26.935-2.268 0-1.032-.312-1.8-.936-2.304-.6-.504-1.403-.756-2.412-.756h-6.047v-3.996h6.624c1.68 0 3.084.312 4.212.936 1.152.6 2.016 1.404 2.592 2.412.576.984.864 2.064.864 3.24 0 1.44-.444 2.688-1.332 3.744-.864 1.032-2.136 1.8-3.817 2.304l.216-1.584c1.873.528 3.313 1.404 4.321 2.628 1.032 1.2 1.548 2.652 1.548 4.356 0 1.344-.336 2.568-1.008 3.672-.648 1.08-1.608 1.956-2.88 2.628-1.248.648-2.772.972-4.573.972h-6.768Zm-3.6 0v-25.308h4.86v25.308h-4.86Zm40.423.36c-1.536 0-2.904-.324-4.104-.972a7.137 7.137 0 0 1-2.772-2.7c-.672-1.152-1.008-2.484-1.008-3.996v-10.08h4.752v9.972c0 .72.12 1.344.36 1.872.24.504.6.888 1.08 1.152.48.264 1.044.396 1.692.396.984 0 1.752-.3 2.304-.9.552-.6.828-1.44.828-2.52v-9.972h4.716v10.08c0 1.536-.336 2.88-1.008 4.032-.648 1.152-1.572 2.052-2.772 2.7-1.176.624-2.532.936-4.068.936Zm29.748 0c-1.608 0-3.048-.396-4.32-1.188-1.272-.792-2.28-1.872-3.024-3.24-.72-1.368-1.08-2.904-1.08-4.608 0-1.728.36-3.276 1.08-4.644.744-1.368 1.74-2.448 2.988-3.24 1.272-.792 2.724-1.188 4.356-1.188 1.248 0 2.364.252 3.348.756a6.087 6.087 0 0 1 2.412 2.124c.624.888.96 1.896 1.008 3.024v6.192a5.92 5.92 0 0 1-.972 3.06 6.364 6.364 0 0 1-2.412 2.16c-1.008.528-2.136.792-3.384.792Zm.792-4.356c.888 0 1.656-.192 2.304-.576a4.114 4.114 0 0 0 1.548-1.656c.384-.72.576-1.548.576-2.484 0-.912-.192-1.716-.576-2.412a3.83 3.83 0 0 0-1.548-1.656c-.648-.408-1.404-.612-2.268-.612-.888 0-1.668.204-2.34.612a4.47 4.47 0 0 0-1.548 1.656c-.36.696-.54 1.5-.54 2.412 0 .936.18 1.764.54 2.484a4.375 4.375 0 0 0 1.584 1.656c.672.384 1.428.576 2.268.576Zm8.856 3.996h-4.68v-4.68l.756-4.248-.792-4.176v-12.924h4.716v26.028Zm22.244 7.704c-1.848 0-3.48-.336-4.896-1.008-1.416-.648-2.544-1.572-3.384-2.772l2.988-2.988c.672.792 1.416 1.392 2.232 1.8.84.432 1.848.648 3.024.648 1.464 0 2.616-.372 3.456-1.116.864-.744 1.296-1.776 1.296-3.096v-4.356l.792-3.816-.756-3.816v-4.572h4.68v16.488c0 1.728-.408 3.228-1.224 4.5-.792 1.296-1.896 2.304-3.312 3.024-1.416.72-3.048 1.08-4.896 1.08Zm-.216-8.172c-1.56 0-2.964-.372-4.212-1.116a8.237 8.237 0 0 1-2.952-3.132c-.696-1.32-1.044-2.796-1.044-4.428 0-1.632.348-3.096 1.044-4.392a8.038 8.038 0 0 1 2.952-3.06c1.248-.768 2.652-1.152 4.212-1.152 1.296 0 2.436.252 3.42.756 1.008.504 1.8 1.2 2.376 2.088.576.864.888 1.884.936 3.06v5.472c-.048 1.152-.372 2.184-.972 3.096-.576.888-1.368 1.584-2.376 2.088-.984.48-2.112.72-3.384.72Zm.936-4.284c.864 0 1.608-.18 2.232-.54a4.07 4.07 0 0 0 1.512-1.548c.36-.672.54-1.428.54-2.268 0-.864-.18-1.62-.54-2.268a3.818 3.818 0 0 0-1.512-1.512c-.624-.384-1.368-.576-2.232-.576-.864 0-1.62.192-2.268.576a3.76 3.76 0 0 0-1.512 1.548c-.36.648-.54 1.392-.54 2.232 0 .816.18 1.56.54 2.232a4.07 4.07 0 0 0 1.512 1.548c.648.384 1.404.576 2.268.576Zm31.972 5.112c-1.824 0-3.444-.384-4.86-1.152a9.136 9.136 0 0 1-3.384-3.24c-.816-1.368-1.224-2.928-1.224-4.68 0-1.728.396-3.264 1.188-4.608a8.938 8.938 0 0 1 3.312-3.24c1.392-.816 2.94-1.224 4.644-1.224 1.68 0 3.156.384 4.428 1.152a7.818 7.818 0 0 1 3.024 3.096c.744 1.296 1.116 2.772 1.116 4.428 0 .312-.024.636-.072.972a7.206 7.206 0 0 1-.18 1.08l-14.616.036v-3.528l12.42-.036-1.908 1.476c-.048-1.032-.24-1.896-.576-2.592-.312-.696-.78-1.224-1.404-1.584-.6-.384-1.344-.576-2.232-.576-.936 0-1.752.216-2.448.648-.696.408-1.236.996-1.62 1.764-.36.744-.54 1.632-.54 2.664 0 1.056.192 1.98.576 2.772a4.457 4.457 0 0 0 1.728 1.8c.744.408 1.608.612 2.592.612.888 0 1.692-.144 2.412-.432a5.247 5.247 0 0 0 1.872-1.368l2.772 2.772a8.024 8.024 0 0 1-3.096 2.232c-1.2.504-2.508.756-3.924.756Zm24.094-.36v-24.624h4.716v24.624h-4.716Zm-4.068-13.248v-4.14h12.852v4.14h-12.852Z"/></svg>