<svg width="122" height="99" viewBox="0 0 122 99" fill="none" xmlns="http://www.w3.org/2000/svg">
<path d="M59.3825 25.6832L20.3349 59.2431V95.4639C20.3349 96.4017 20.692 97.3011 21.3274 97.9643C21.9629 98.6274 22.8248 99 23.7236 99L47.4567 98.9359C48.3525 98.9312 49.21 98.5566 49.8418 97.894C50.4737 97.2313 50.8284 96.3346 50.8284 95.3998V74.2472C50.8284 73.3094 51.1854 72.41 51.8209 71.7468C52.4564 71.0837 53.3183 70.7111 54.217 70.7111H67.7715C68.6702 70.7111 69.5321 71.0837 70.1676 71.7468C70.8031 72.41 71.1601 73.3094 71.1601 74.2472V95.3843C71.1587 95.8496 71.2453 96.3106 71.415 96.7409C71.5847 97.1712 71.8341 97.5623 72.1489 97.8919C72.4637 98.2214 72.8377 98.4829 73.2495 98.6613C73.6613 98.8397 74.1029 98.9315 74.5488 98.9315L98.2734 99C99.1721 99 100.034 98.6274 100.67 97.9643C101.305 97.3011 101.662 96.4017 101.662 95.4639V59.2188L62.6229 25.6832C62.1639 25.2972 61.5922 25.0866 61.0027 25.0866C60.4132 25.0866 59.8415 25.2972 59.3825 25.6832ZM121.062 48.4933L103.356 33.2637V2.65208C103.356 1.94871 103.089 1.27414 102.612 0.776777C102.135 0.279415 101.489 0 100.815 0H88.9547C88.2806 0 87.6342 0.279415 87.1576 0.776777C86.6809 1.27414 86.4132 1.94871 86.4132 2.65208V18.6994L67.4517 2.42002C65.632 0.85746 63.3487 0.00312359 60.9921 0.00312359C58.6356 0.00312359 56.3522 0.85746 54.5325 2.42002L0.922339 48.4933C0.664989 48.7153 0.452072 48.988 0.295755 49.2958C0.139438 49.6037 0.042783 49.9407 0.0113141 50.2876C-0.0201548 50.6344 0.0141786 50.9843 0.112353 51.3173C0.210526 51.6504 0.370617 51.9599 0.583477 52.2283L5.9841 59.0795C6.19638 59.3489 6.45749 59.5719 6.75247 59.7358C7.04745 59.8998 7.37052 60.0014 7.70318 60.0348C8.03584 60.0683 8.37155 60.0329 8.69111 59.9308C9.01066 59.8287 9.30778 59.6619 9.56546 59.4398L59.3825 16.6219C59.8415 16.2359 60.4132 16.0254 61.0027 16.0254C61.5922 16.0254 62.1639 16.2359 62.6229 16.6219L112.442 59.4398C112.699 59.6619 112.996 59.829 113.315 59.9314C113.634 60.0339 113.97 60.0697 114.302 60.0368C114.634 60.004 114.957 59.9031 115.252 59.74C115.547 59.5769 115.809 59.3547 116.021 59.0862L121.422 52.235C121.635 51.965 121.794 51.6538 121.891 51.3194C121.988 50.9849 122.021 50.6337 121.987 50.286C121.954 49.9383 121.855 49.601 121.696 49.2933C121.537 48.9856 121.322 48.7138 121.062 48.4933Z" fill="#32CD32"/>
</svg>
